{
	"patcher" : 	{
		"fileversion" : 1,
		"rect" : [ 151.0, 227.0, 708.0, 375.0 ],
		"bglocked" : 0,
		"defrect" : [ 151.0, 227.0, 708.0, 375.0 ],
		"openrect" : [ 0.0, 0.0, 0.0, 0.0 ],
		"openinpresentation" : 0,
		"default_fontsize" : 12.0,
		"default_fontface" : 0,
		"default_fontname" : "Arial",
		"gridonopen" : 0,
		"gridsize" : [ 15.0, 15.0 ],
		"gridsnaponopen" : 0,
		"toolbarvisible" : 1,
		"boxanimatetime" : 200,
		"imprint" : 0,
		"enablehscroll" : 1,
		"enablevscroll" : 1,
		"devicewidth" : 0.0,
		"boxes" : [ 			{
				"box" : 				{
					"maxclass" : "newobj",
					"text" : "+ 1",
					"fontname" : "Arial",
					"presentation_rect" : [ 410.0, 223.0, 0.0, 0.0 ],
					"numinlets" : 2,
					"fontsize" : 12.0,
					"numoutlets" : 1,
					"patching_rect" : [ 410.0, 223.0, 32.5, 20.0 ],
					"outlettype" : [ "int" ],
					"id" : "obj-16"
				}

			}
, 			{
				"box" : 				{
					"maxclass" : "newobj",
					"text" : "+ 1",
					"fontname" : "Arial",
					"numinlets" : 2,
					"fontsize" : 12.0,
					"numoutlets" : 1,
					"patching_rect" : [ 142.0, 287.0, 32.5, 20.0 ],
					"outlettype" : [ "int" ],
					"id" : "obj-13"
				}

			}
, 			{
				"box" : 				{
					"maxclass" : "newobj",
					"text" : "route set",
					"fontname" : "Arial",
					"numinlets" : 1,
					"fontsize" : 12.0,
					"numoutlets" : 2,
					"patching_rect" : [ 419.0, 68.0, 57.0, 20.0 ],
					"outlettype" : [ "", "" ],
					"id" : "obj-2"
				}

			}
, 			{
				"box" : 				{
					"maxclass" : "newobj",
					"text" : "!- 128",
					"fontname" : "Arial",
					"numinlets" : 2,
					"fontsize" : 12.0,
					"numoutlets" : 1,
					"patching_rect" : [ 244.0, 116.0, 41.0, 20.0 ],
					"outlettype" : [ "int" ],
					"id" : "obj-21"
				}

			}
, 			{
				"box" : 				{
					"maxclass" : "message",
					"text" : "set $1",
					"fontname" : "Arial",
					"numinlets" : 2,
					"fontsize" : 12.0,
					"numoutlets" : 1,
					"patching_rect" : [ 279.0, 178.0, 43.0, 18.0 ],
					"outlettype" : [ "" ],
					"id" : "obj-19"
				}

			}
, 			{
				"box" : 				{
					"maxclass" : "newobj",
					"text" : "past",
					"fontname" : "Arial",
					"numinlets" : 1,
					"fontsize" : 12.0,
					"numoutlets" : 1,
					"patching_rect" : [ 244.0, 205.0, 33.0, 20.0 ],
					"outlettype" : [ "bang" ],
					"id" : "obj-20"
				}

			}
, 			{
				"box" : 				{
					"maxclass" : "message",
					"text" : "set $1",
					"fontname" : "Arial",
					"numinlets" : 2,
					"fontsize" : 12.0,
					"numoutlets" : 1,
					"patching_rect" : [ 198.0, 178.0, 43.0, 18.0 ],
					"outlettype" : [ "" ],
					"id" : "obj-18"
				}

			}
, 			{
				"box" : 				{
					"maxclass" : "newobj",
					"text" : "past",
					"fontname" : "Arial",
					"numinlets" : 1,
					"fontsize" : 12.0,
					"numoutlets" : 1,
					"patching_rect" : [ 163.0, 205.0, 33.0, 20.0 ],
					"outlettype" : [ "bang" ],
					"id" : "obj-15"
				}

			}
, 			{
				"box" : 				{
					"maxclass" : "comment",
					"text" : "path inset up down",
					"fontname" : "Arial",
					"numinlets" : 1,
					"fontsize" : 12.0,
					"numoutlets" : 0,
					"patching_rect" : [ 525.0, 130.0, 150.0, 20.0 ],
					"id" : "obj-14"
				}

			}
, 			{
				"box" : 				{
					"maxclass" : "newobj",
					"text" : "t b #1 s",
					"fontname" : "Arial",
					"numinlets" : 1,
					"fontsize" : 12.0,
					"numoutlets" : 3,
					"patching_rect" : [ 419.0, 186.0, 50.0, 20.0 ],
					"outlettype" : [ "bang", "", "" ],
					"id" : "obj-12"
				}

			}
, 			{
				"box" : 				{
					"maxclass" : "newobj",
					"text" : "unpack s i i i",
					"fontname" : "Arial",
					"numinlets" : 1,
					"fontsize" : 12.0,
					"numoutlets" : 4,
					"patching_rect" : [ 419.0, 131.0, 77.0, 20.0 ],
					"outlettype" : [ "", "int", "int", "int" ],
					"id" : "obj-11"
				}

			}
, 			{
				"box" : 				{
					"maxclass" : "newobj",
					"text" : "pack preload i s i",
					"fontname" : "Arial",
					"numinlets" : 4,
					"fontsize" : 12.0,
					"numoutlets" : 1,
					"patching_rect" : [ 393.0, 256.0, 101.0, 20.0 ],
					"outlettype" : [ "" ],
					"id" : "obj-10"
				}

			}
, 			{
				"box" : 				{
					"maxclass" : "comment",
					"text" : "sfplay",
					"fontname" : "Arial",
					"numinlets" : 1,
					"fontsize" : 12.0,
					"numoutlets" : 0,
					"patching_rect" : [ 290.0, 352.0, 42.0, 20.0 ],
					"id" : "obj-9"
				}

			}
, 			{
				"box" : 				{
					"maxclass" : "newobj",
					"text" : "t #1",
					"fontname" : "Arial",
					"numinlets" : 1,
					"fontsize" : 12.0,
					"numoutlets" : 1,
					"patching_rect" : [ 142.0, 254.0, 31.0, 20.0 ],
					"outlettype" : [ "" ],
					"id" : "obj-8"
				}

			}
, 			{
				"box" : 				{
					"maxclass" : "outlet",
					"numinlets" : 1,
					"numoutlets" : 0,
					"patching_rect" : [ 296.0, 319.0, 25.0, 25.0 ],
					"id" : "obj-7",
					"comment" : ""
				}

			}
, 			{
				"box" : 				{
					"maxclass" : "newobj",
					"text" : "route #1",
					"fontname" : "Arial",
					"numinlets" : 1,
					"fontsize" : 12.0,
					"numoutlets" : 2,
					"patching_rect" : [ 419.0, 97.0, 55.0, 20.0 ],
					"outlettype" : [ "", "" ],
					"id" : "obj-6"
				}

			}
, 			{
				"box" : 				{
					"maxclass" : "comment",
					"text" : "config",
					"fontname" : "Arial",
					"numinlets" : 1,
					"fontsize" : 12.0,
					"numoutlets" : 0,
					"patching_rect" : [ 404.0, 33.0, 43.0, 20.0 ],
					"id" : "obj-4"
				}

			}
, 			{
				"box" : 				{
					"maxclass" : "inlet",
					"numinlets" : 0,
					"numoutlets" : 1,
					"patching_rect" : [ 419.0, 32.0, 25.0, 25.0 ],
					"outlettype" : [ "" ],
					"id" : "obj-5",
					"comment" : ""
				}

			}
, 			{
				"box" : 				{
					"maxclass" : "comment",
					"text" : "angle",
					"fontname" : "Arial",
					"numinlets" : 1,
					"fontsize" : 12.0,
					"numoutlets" : 0,
					"patching_rect" : [ 148.0, 33.0, 40.0, 20.0 ],
					"id" : "obj-3"
				}

			}
, 			{
				"box" : 				{
					"maxclass" : "inlet",
					"numinlets" : 0,
					"numoutlets" : 1,
					"patching_rect" : [ 163.0, 66.0, 25.0, 25.0 ],
					"outlettype" : [ "" ],
					"id" : "obj-1",
					"comment" : ""
				}

			}
 ],
		"lines" : [ 			{
				"patchline" : 				{
					"source" : [ "obj-16", 0 ],
					"destination" : [ "obj-10", 1 ],
					"hidden" : 0,
					"midpoints" : [  ]
				}

			}
, 			{
				"patchline" : 				{
					"source" : [ "obj-12", 1 ],
					"destination" : [ "obj-16", 0 ],
					"hidden" : 0,
					"midpoints" : [  ]
				}

			}
, 			{
				"patchline" : 				{
					"source" : [ "obj-12", 2 ],
					"destination" : [ "obj-10", 2 ],
					"hidden" : 0,
					"midpoints" : [  ]
				}

			}
, 			{
				"patchline" : 				{
					"source" : [ "obj-11", 0 ],
					"destination" : [ "obj-12", 0 ],
					"hidden" : 0,
					"midpoints" : [  ]
				}

			}
, 			{
				"patchline" : 				{
					"source" : [ "obj-12", 0 ],
					"destination" : [ "obj-10", 0 ],
					"hidden" : 0,
					"midpoints" : [ 428.5, 219.0, 402.5, 219.0 ]
				}

			}
, 			{
				"patchline" : 				{
					"source" : [ "obj-11", 1 ],
					"destination" : [ "obj-10", 3 ],
					"hidden" : 0,
					"midpoints" : [ 447.833344, 176.0, 484.5, 176.0 ]
				}

			}
, 			{
				"patchline" : 				{
					"source" : [ "obj-10", 0 ],
					"destination" : [ "obj-7", 0 ],
					"hidden" : 0,
					"midpoints" : [ 402.5, 284.0, 305.5, 284.0 ]
				}

			}
, 			{
				"patchline" : 				{
					"source" : [ "obj-13", 0 ],
					"destination" : [ "obj-7", 0 ],
					"hidden" : 0,
					"midpoints" : [ 151.5, 309.0, 305.5, 309.0 ]
				}

			}
, 			{
				"patchline" : 				{
					"source" : [ "obj-8", 0 ],
					"destination" : [ "obj-13", 0 ],
					"hidden" : 0,
					"midpoints" : [  ]
				}

			}
, 			{
				"patchline" : 				{
					"source" : [ "obj-2", 0 ],
					"destination" : [ "obj-6", 0 ],
					"hidden" : 0,
					"midpoints" : [  ]
				}

			}
, 			{
				"patchline" : 				{
					"source" : [ "obj-5", 0 ],
					"destination" : [ "obj-2", 0 ],
					"hidden" : 0,
					"midpoints" : [  ]
				}

			}
, 			{
				"patchline" : 				{
					"source" : [ "obj-6", 0 ],
					"destination" : [ "obj-11", 0 ],
					"hidden" : 0,
					"midpoints" : [  ]
				}

			}
, 			{
				"patchline" : 				{
					"source" : [ "obj-1", 0 ],
					"destination" : [ "obj-15", 0 ],
					"hidden" : 0,
					"midpoints" : [  ]
				}

			}
, 			{
				"patchline" : 				{
					"source" : [ "obj-15", 0 ],
					"destination" : [ "obj-8", 0 ],
					"hidden" : 0,
					"midpoints" : [ 172.5, 241.0, 151.5, 241.0 ]
				}

			}
, 			{
				"patchline" : 				{
					"source" : [ "obj-18", 0 ],
					"destination" : [ "obj-15", 0 ],
					"hidden" : 0,
					"midpoints" : [ 207.5, 200.0, 172.5, 200.0 ]
				}

			}
, 			{
				"patchline" : 				{
					"source" : [ "obj-11", 2 ],
					"destination" : [ "obj-18", 0 ],
					"hidden" : 0,
					"midpoints" : [ 467.166656, 156.0, 207.5, 156.0 ]
				}

			}
, 			{
				"patchline" : 				{
					"source" : [ "obj-19", 0 ],
					"destination" : [ "obj-20", 0 ],
					"hidden" : 0,
					"midpoints" : [ 288.5, 200.0, 253.5, 200.0 ]
				}

			}
, 			{
				"patchline" : 				{
					"source" : [ "obj-20", 0 ],
					"destination" : [ "obj-8", 0 ],
					"hidden" : 0,
					"midpoints" : [ 253.5, 241.0, 151.5, 241.0 ]
				}

			}
, 			{
				"patchline" : 				{
					"source" : [ "obj-11", 3 ],
					"destination" : [ "obj-19", 0 ],
					"hidden" : 0,
					"midpoints" : [ 486.5, 165.0, 288.5, 165.0 ]
				}

			}
, 			{
				"patchline" : 				{
					"source" : [ "obj-1", 0 ],
					"destination" : [ "obj-21", 0 ],
					"hidden" : 0,
					"midpoints" : [ 172.5, 98.0, 253.5, 98.0 ]
				}

			}
, 			{
				"patchline" : 				{
					"source" : [ "obj-21", 0 ],
					"destination" : [ "obj-20", 0 ],
					"hidden" : 0,
					"midpoints" : [  ]
				}

			}
 ]
	}

}
